<?xml version="1.0" standalone="no"?>
<!DOCTYPE svg PUBLIC "-//W3C//DTD SVG 20010904//EN"
 "http://www.w3.org/TR/2001/REC-SVG-20010904/DTD/svg10.dtd">
<svg version="1.0" xmlns="http://www.w3.org/2000/svg"
 width="16.000000pt" height="16.000000pt" viewBox="0 0 16.000000 16.000000"
 preserveAspectRatio="xMidYMid meet">
<metadata>
Created by potrace 1.11, written by Peter Selinger 2001-2013
</metadata>
<g transform="translate(0.000000,16.000000) scale(0.006250,-0.006250)"
fill="#000000" stroke="none">
<path d="M916 2235 c-10 -8 -24 -11 -31 -9 -7 3 -15 -2 -19 -11 -3 -10 -11
-13 -18 -9 -7 4 -10 4 -6 -1 4 -4 -3 -18 -17 -30 -13 -13 -21 -26 -18 -29 4
-3 1 -6 -5 -6 -7 0 -9 -7 -5 -17 5 -13 2 -15 -12 -10 -15 6 -16 5 -5 -8 10
-12 10 -15 -4 -15 -9 0 -16 4 -16 8 0 4 -10 9 -22 9 -13 1 -24 7 -26 13 -3 7
-9 7 -19 -1 -12 -10 -16 -10 -24 2 -6 10 -9 10 -9 2 0 -7 -7 -13 -16 -13 -9 0
-12 -5 -8 -12 4 -6 3 -8 -3 -5 -5 4 -24 -4 -41 -16 -22 -17 -28 -27 -22 -38 8
-11 13 -12 30 -1 23 14 26 5 6 -20 -9 -12 -16 -14 -23 -7 -8 8 -13 7 -18 -2
-6 -8 -4 -10 6 -4 12 8 12 6 0 -8 -7 -9 -17 -15 -21 -12 -5 3 -11 -4 -15 -15
-3 -11 -10 -20 -15 -20 -4 0 -10 -9 -13 -21 -3 -12 -10 -18 -17 -14 -6 3 -10
3 -9 -2 3 -19 -2 -34 -10 -28 -5 3 -12 1 -16 -5 -3 -5 0 -10 7 -10 10 0 10 -2
1 -8 -7 -4 -14 -23 -15 -42 -2 -19 -7 -38 -13 -42 -5 -4 0 -6 13 -5 12 0 25
10 28 20 5 16 8 17 15 6 6 -10 1 -21 -19 -38 -15 -13 -21 -20 -14 -17 14 8 17
-10 2 -19 -6 -4 -8 -11 -5 -16 4 -5 -2 -9 -12 -9 -14 0 -15 -2 -4 -9 8 -5 12
-19 9 -35 -3 -14 -1 -26 4 -26 5 0 6 -5 3 -11 -10 -15 23 -79 41 -79 8 0 13 4
9 9 -3 6 4 9 15 8 23 -1 25 -8 8 -26 -7 -8 -8 -11 -2 -8 6 3 11 -1 11 -9 0 -9
-6 -13 -16 -9 -11 3 -10 0 3 -10 11 -8 16 -15 10 -15 -5 0 -3 -4 3 -8 7 -4 14
-19 17 -32 2 -14 9 -24 15 -23 6 2 11 -4 11 -12 0 -12 3 -13 19 -3 11 7 17 16
14 21 -3 5 -6 26 -7 47 -1 34 2 39 19 36 11 -2 14 -1 8 1 -15 5 -16 22 -5 41
14 21 44 3 36 -22 -4 -11 -7 -27 -7 -34 0 -8 -7 -10 -16 -7 -12 5 -13 3 -5 -5
6 -6 21 -12 33 -13 25 -2 26 -6 5 -21 -13 -10 -13 -12 5 -12 11 0 19 3 19 6
-2 20 4 21 17 4 8 -10 15 -27 15 -36 0 -10 4 -18 9 -18 5 0 11 -9 14 -20 3
-13 1 -18 -6 -14 -7 3 -2 -3 10 -14 12 -11 20 -22 17 -25 -3 -2 2 -7 10 -10
10 -4 20 2 27 15 6 11 7 18 1 14 -5 -3 -13 1 -16 10 -4 10 -2 13 7 8 9 -5 9
-4 0 7 -7 7 -13 17 -13 22 0 4 6 5 13 2 6 -4 3 1 -7 9 -19 15 -12 22 17 17 5
-1 6 3 2 9 -4 6 -1 18 7 27 9 12 9 15 1 9 -7 -4 -13 -2 -13 3 0 6 7 11 15 11
8 0 14 4 13 9 -2 5 2 9 7 10 15 2 13 -22 -4 -42 -11 -14 -12 -20 -2 -30 10 -9
11 -8 5 7 -6 15 -4 17 6 11 9 -6 11 -4 5 5 -5 9 -4 11 3 6 7 -4 12 -14 12 -22
0 -8 4 -12 10 -9 6 3 7 -1 4 -9 -4 -11 0 -16 12 -16 16 0 17 -2 4 -10 -13 -8
-12 -10 3 -10 10 0 15 -4 12 -10 -6 -9 8 -14 28 -11 4 0 7 -4 7 -10 0 -5 5 -7
10 -4 5 3 10 2 10 -3 0 -6 10 -8 22 -4 12 3 17 7 11 9 -7 3 -9 11 -6 19 3 8 0
14 -7 14 -7 0 -10 7 -6 15 3 8 0 15 -6 15 -6 0 -5 6 3 17 12 15 12 16 -3 11
-27 -11 -31 5 -6 25 13 10 18 16 12 13 -7 -3 -18 2 -25 11 -8 10 -9 14 -2 10
20 -13 32 23 15 44 -9 10 -17 28 -19 40 -3 20 0 19 29 -10 23 -23 34 -28 40
-19 5 10 8 8 8 -4 0 -9 9 -19 19 -23 12 -4 18 -12 14 -21 -3 -7 0 -14 7 -14 6
0 8 -5 5 -10 -4 -6 -10 -8 -14 -6 -4 3 -8 -2 -8 -10 0 -10 4 -11 11 -4 14 14
26 12 26 -5 0 -7 8 -19 18 -24 16 -10 15 -10 -3 -11 -18 -1 -18 -2 4 -14 18
-10 20 -15 10 -19 -10 -4 -10 -6 3 -6 11 -1 19 -13 24 -36 4 -20 10 -32 17
-28 5 3 7 1 4 -4 -4 -6 -1 -16 7 -22 8 -7 13 -20 12 -29 -2 -9 5 -32 16 -50
10 -18 16 -37 13 -43 -4 -5 -3 -9 2 -9 9 0 33 -70 33 -95 0 -8 4 -15 9 -15 4
0 7 -11 6 -25 -2 -14 1 -25 6 -25 6 0 8 -4 4 -9 -3 -5 -2 -12 3 -15 4 -2 9
-19 10 -37 1 -18 8 -39 14 -46 6 -7 8 -16 5 -19 -3 -3 1 -27 9 -52 17 -56 16
-55 4 -47 -5 3 -10 2 -10 -4 0 -5 5 -11 11 -13 5 -2 11 -11 13 -20 1 -10 5
-21 9 -24 4 -4 2 -13 -4 -21 -9 -10 -8 -13 1 -13 9 0 9 -4 -1 -17 -12 -15 -12
-16 1 -8 11 6 10 3 -3 -12 -9 -11 -14 -23 -10 -26 3 -4 1 -7 -5 -7 -7 0 -12
-6 -12 -13 0 -7 -7 -22 -16 -33 -8 -10 -12 -13 -8 -5 5 9 3 12 -5 7 -6 -4 -9
-11 -6 -16 3 -5 -1 -23 -10 -40 -8 -16 -16 -33 -16 -37 0 -5 -7 -12 -15 -16
-8 -5 -12 -12 -9 -18 4 -5 1 -9 -4 -9 -6 0 -11 -6 -11 -12 0 -17 -54 -42 -58
-28 -3 7 -9 6 -20 -2 -13 -11 -14 -11 -7 1 6 11 5 12 -6 5 -18 -11 -69 -12
-69 0 0 5 -7 3 -15 -4 -12 -10 -19 -10 -27 -2 -8 8 -17 8 -32 0 -15 -8 -21 -8
-24 1 -2 6 -8 11 -13 11 -6 0 -8 -4 -5 -9 3 -4 -11 -6 -32 -4 -46 5 -51 5 -85
0 -15 -2 -30 0 -33 5 -3 5 -12 4 -19 -2 -8 -7 -18 -9 -23 -6 -5 3 -8 -8 -6
-25 2 -16 0 -28 -5 -24 -11 6 -8 -22 4 -32 4 -4 5 -2 0 6 -5 9 -4 12 3 7 7 -4
12 -13 12 -21 0 -9 12 -12 40 -10 29 2 38 0 33 -8 -5 -9 -3 -9 8 -1 12 8 135
10 339 4 8 0 38 1 65 3 28 2 58 -1 69 -6 11 -5 16 -5 13 0 -3 5 14 9 38 9 28
0 42 -4 38 -10 -4 -6 1 -5 10 3 14 11 20 11 34 0 11 -10 14 -10 9 -2 -4 9 -1
13 9 13 12 0 15 -5 11 -17 -5 -16 -4 -16 6 -3 16 18 82 25 71 7 -5 -9 -3 -9 8
0 17 14 30 14 46 2 7 -7 14 -6 18 1 3 5 11 10 16 10 6 0 7 -6 3 -12 -6 -10 -4
-10 8 0 11 9 18 10 23 2 3 -5 12 -10 18 -10 7 0 6 4 -3 10 -12 8 -10 10 8 10
15 0 21 -4 17 -13 -4 -6 -1 -5 7 4 13 16 38 15 38 -2 0 -6 -5 -7 -12 -3 -7 5
-8 3 -4 -5 6 -10 12 -9 24 2 11 9 38 13 80 12 46 -1 62 3 62 13 0 8 5 10 13 6
8 -5 8 -2 -2 9 -9 12 -10 17 -2 17 9 0 9 5 1 20 -6 11 -7 20 -3 20 4 0 2 4 -5
9 -8 4 -31 7 -52 5 -22 -2 -42 1 -45 7 -5 7 -11 6 -20 -1 -15 -13 -46 -10 -57
5 -5 6 -8 6 -8 -1 0 -8 -32 -11 -98 -10 -97 2 -122 8 -122 28 0 6 7 5 18 -3
14 -11 13 -10 -2 9 -11 12 -15 22 -11 22 5 0 4 5 -3 12 -7 7 -12 22 -12 33 0
12 -3 25 -7 29 -11 10 -12 37 -2 30 5 -3 9 0 9 5 0 6 -7 11 -15 11 -8 0 -12 6
-9 15 3 8 2 20 -2 27 -13 20 -16 81 -4 73 6 -3 7 0 4 10 -4 8 0 23 7 31 8 9
14 22 14 28 2 22 17 45 28 42 7 -1 9 -1 5 1 -12 7 -9 33 3 33 5 0 7 5 4 10 -3
6 -2 10 3 10 6 0 9 8 8 18 0 9 4 16 10 15 5 -1 9 12 8 28 -1 16 2 27 6 24 4
-3 11 2 14 11 3 8 2 12 -4 9 -6 -3 -7 1 -4 9 3 9 10 16 14 16 5 0 7 9 5 20 -2
11 0 20 5 20 5 0 6 7 3 17 -4 9 -2 14 3 10 5 -3 10 2 11 11 3 43 8 62 15 62 4
0 5 7 2 15 -4 10 0 15 12 15 11 0 15 3 9 8 -14 9 -12 38 2 35 6 -1 9 6 6 18
-5 16 -2 20 13 17 12 -2 18 2 16 11 -2 7 4 21 13 31 8 9 12 20 8 24 -4 4 0 4
9 1 9 -4 19 -1 24 6 5 8 3 10 -5 4 -10 -6 -11 -3 -1 14 6 12 15 19 20 16 9 -6
8 -31 -3 -41 -4 -4 -7 -12 -7 -18 0 -6 5 -4 10 4 7 12 11 10 18 -10 7 -19 6
-26 -6 -29 -12 -2 -13 -4 -1 -12 11 -7 11 -9 1 -9 -7 0 -10 -5 -7 -10 3 -5 -1
-10 -10 -10 -9 0 -13 -4 -10 -10 3 -5 -2 -10 -11 -10 -16 0 -16 -1 2 -14 13
-10 23 -11 32 -4 7 6 15 8 18 5 6 -6 24 6 51 35 9 9 21 14 26 11 7 -4 8 1 3
13 -4 10 -4 15 0 11 4 -4 12 3 18 16 7 12 17 23 24 23 7 1 17 2 23 3 5 0 7 6
3 12 -3 6 -9 7 -13 3 -11 -16 -34 -16 -28 1 4 8 1 15 -5 15 -6 0 -8 3 -5 6 4
4 14 1 23 -7 10 -8 19 -12 22 -9 2 3 11 -4 18 -15 9 -14 10 -24 3 -35 -9 -12
-10 -11 -4 5 5 17 4 18 -7 7 -11 -11 -10 -16 4 -26 10 -7 15 -16 11 -19 -3 -4
1 -7 10 -7 16 0 22 12 18 33 -1 5 3 6 9 2 5 -3 10 1 10 11 0 13 3 14 14 5 11
-9 12 -6 8 15 -4 21 -2 25 8 19 10 -6 12 -4 7 7 -3 9 -1 20 5 26 6 6 6 12 -3
17 -8 5 -10 4 -5 -3 4 -7 2 -12 -5 -12 -6 0 -9 8 -6 20 3 10 0 21 -7 24 -6 2
-2 5 9 5 15 1 17 3 6 10 -9 6 -10 11 -2 15 6 4 11 13 11 19 0 7 -4 6 -11 -3
-9 -13 -10 -12 -5 3 3 9 9 24 13 34 5 12 3 14 -8 8 -8 -4 -11 -5 -7 0 4 4 1
17 -7 29 -18 25 -20 47 -2 22 12 -16 13 -15 12 8 -1 14 -5 29 -8 33 -12 11 -8
21 13 26 11 3 18 2 15 -3 -3 -4 6 -7 19 -6 13 0 22 4 20 8 -3 4 4 11 13 17 22
12 11 24 -24 29 -14 1 -32 10 -40 18 -8 7 -22 14 -31 14 -11 0 -13 3 -5 11 12
12 5 59 -9 59 -5 0 -6 5 -3 10 3 6 2 10 -3 10 -4 0 -17 8 -28 18 -29 27 -79
43 -93 29 -6 -6 -11 -7 -11 -2 0 4 -9 -3 -21 -16 -16 -18 -22 -20 -28 -10 -5
7 -10 9 -12 5 -2 -5 -18 -17 -35 -26 -23 -13 -34 -14 -42 -6 -9 9 -12 9 -12 0
0 -30 -31 -9 -64 43 -11 17 -25 34 -33 38 -7 5 -10 13 -7 19 4 7 2 8 -5 4 -6
-4 -14 0 -17 8 -3 9 -10 14 -14 11 -5 -3 -14 0 -22 7 -22 22 -75 16 -100 -11
-14 -15 -16 -19 -4 -11 16 13 20 12 37 -9 10 -13 16 -27 13 -32 -3 -5 0 -8 7
-7 6 2 14 -3 17 -11 2 -8 1 -11 -4 -9 -5 3 -18 -4 -29 -15 -11 -11 -15 -18
-10 -15 6 3 20 -5 31 -17 21 -22 21 -22 2 -34 -12 -7 -17 -8 -13 -2 3 6 -1 11
-9 11 -8 0 -20 8 -25 18 -6 10 -11 12 -11 4 0 -7 -5 -10 -10 -7 -6 4 -8 10 -5
15 3 4 -3 7 -13 6 -9 0 -16 5 -14 12 1 6 -2 12 -8 12 -5 0 -10 -4 -10 -10 0
-19 -39 -10 -56 13 -12 16 -15 17 -10 4 4 -13 2 -17 -6 -14 -7 2 -12 10 -11
16 5 21 -65 94 -80 84 -6 -4 -7 -1 -2 7 6 10 4 12 -8 7 -9 -3 -19 -3 -21 2 -7
11 27 10 41 -1 7 -6 19 -8 28 -4 8 3 14 0 12 -7 -1 -6 8 -13 21 -15 12 -2 22
-7 22 -11 0 -4 7 -16 15 -27 13 -16 14 -16 9 -1 -3 9 -2 17 4 17 15 0 20 -22
11 -48 -6 -15 -5 -21 1 -17 6 3 10 13 10 21 0 8 4 13 8 10 5 -3 8 8 8 25 0 16
-3 29 -8 29 -4 0 -8 5 -8 11 0 5 6 7 13 4 6 -4 4 0 -7 9 -10 8 -16 19 -13 24
3 4 -3 15 -14 22 -20 15 -27 36 -7 24 7 -4 8 -3 4 4 -4 6 -14 8 -24 5 -9 -3
-14 -3 -10 2 4 4 -1 15 -10 24 -10 9 -13 13 -7 9 7 -4 15 -5 18 -1 4 3 7 1 7
-5 0 -7 9 -12 20 -12 11 0 20 -4 20 -10 0 -5 8 -10 18 -10 13 0 14 2 3 9 -7 5
-11 13 -7 19 3 5 -1 13 -10 16 -10 4 -14 12 -10 23 4 10 4 14 0 10 -12 -11
-33 13 -27 30 4 11 2 14 -5 9 -7 -4 -12 -3 -12 3 0 5 -9 13 -20 16 -11 4 -18
10 -15 14 2 5 -6 8 -18 8 -40 1 -48 3 -43 12 3 5 -4 12 -17 15 l-22 6 24 14
c14 8 32 12 40 9 13 -4 13 -3 2 5 -9 7 -10 12 -2 16 6 4 11 16 11 27 0 14 4
18 13 13 9 -6 9 -5 0 8 -7 8 -10 18 -6 21 14 15 -29 18 -46 3 -10 -9 -21 -13
-24 -10 -4 4 -9 -1 -13 -10 -3 -9 -10 -16 -16 -16 -5 0 -7 4 -4 8 3 5 -1 9 -8
9 -8 0 -12 -7 -8 -15 3 -9 1 -13 -5 -9 -10 6 -91 -31 -121 -55 -10 -8 -13 -9
-9 -1 4 6 4 13 0 16 -5 2 -2 2 5 1 6 -2 12 1 12 6 0 6 3 9 8 8 4 -1 19 6 35
16 21 14 25 22 17 32 -6 7 -20 11 -30 9 -10 -2 -21 3 -24 12 -4 10 -10 12 -19
6 -14 -10 -27 -11 -42 -1 -6 3 -18 0 -29 -7z m-256 -206 c0 -5 8 -6 18 -3 13
5 14 4 3 -4 -8 -6 -20 -8 -28 -5 -7 3 -20 0 -28 -7 -18 -15 -20 -5 -3 14 13
14 38 17 38 5z m563 -28 c4 0 7 -4 6 -7 0 -4 5 -11 13 -15 9 -6 9 -9 1 -9 -6
0 -15 5 -18 10 -4 6 -11 7 -17 4 -7 -4 -8 -2 -4 4 9 15 -6 16 -20 2 -6 -6 -10
-3 -10 9 0 15 5 17 21 11 11 -4 23 -8 28 -9z m-523 -136 c0 -16 -2 -17 -9 -6
-8 12 -14 13 -35 3 -19 -8 -26 -9 -26 0 0 7 -7 5 -17 -4 -10 -9 -28 -14 -41
-12 -16 3 -21 0 -16 -8 4 -7 4 -10 0 -6 -5 4 -17 -2 -29 -12 -11 -11 -23 -17
-26 -14 -3 3 2 11 11 18 10 7 14 16 10 20 -4 4 -2 6 3 5 6 -2 25 5 43 14 18
10 37 15 42 12 5 -3 11 -2 14 3 2 4 21 8 40 7 29 0 36 -4 36 -20z m510 -141
c0 -8 4 -13 9 -9 5 3 13 0 17 -6 4 -8 3 -9 -4 -5 -7 4 -12 1 -12 -7 0 -18 -24
-29 -37 -16 -5 5 -9 -2 -8 -19 0 -42 -36 -42 -55 0 -26 57 -22 68 20 66 30 -1
37 -5 33 -17 -4 -13 -3 -13 5 -2 12 16 27 -3 16 -21 -6 -10 -4 -10 7 0 10 9
10 15 1 24 -15 15 -16 28 -2 28 6 0 10 -7 10 -16z m560 2 c0 -3 -4 -8 -10 -11
-5 -3 -10 -1 -10 4 0 6 5 11 10 11 6 0 10 -2 10 -4z m194 -67 c3 -3 -13 -5
-37 -4 -23 1 -46 -1 -52 -4 -22 -12 -36 -10 -25 4 10 13 102 16 114 4z m-1419
-25 c-20 -16 -20 -16 2 -10 21 7 22 6 7 -23 -18 -36 -30 -45 -39 -31 -3 5 -2
10 3 10 5 0 8 10 7 23 -2 25 11 47 29 47 6 0 2 -8 -9 -16z m781 -6 c4 -7 4
-10 -1 -6 -4 4 -20 1 -35 -7 -15 -8 -30 -11 -34 -8 -3 4 -6 1 -6 -6 0 -7 -4
-10 -9 -7 -5 3 -11 -4 -14 -15 -3 -12 -10 -18 -16 -14 -7 3 -8 0 -5 -9 3 -9 1
-16 -6 -16 -6 0 -8 -5 -4 -12 5 -8 2 -9 -9 -5 -9 3 -19 2 -22 -4 -4 -5 -1 -8
6 -7 7 2 13 -10 15 -29 1 -18 -2 -33 -7 -33 -6 0 -8 4 -4 9 3 5 1 12 -5 16
-13 8 -40 61 -45 87 -3 13 0 18 9 15 9 -4 12 2 10 19 -2 19 2 24 14 21 9 -2
16 -10 14 -18 -1 -9 3 -7 13 5 11 14 15 16 15 5 0 -8 3 -10 8 -4 4 6 19 10 34
10 15 -1 38 5 50 12 29 15 26 15 34 1z m-661 -58 c-3 -5 -13 -6 -21 -3 -12 4
-13 8 -3 14 15 9 32 2 24 -11z m650 -76 c-7 -8 -18 -14 -24 -14 -5 0 -13 -5
-17 -12 -5 -7 -2 -9 7 -4 8 4 4 -1 -8 -10 -13 -9 -23 -23 -23 -31 0 -13 -3
-13 -17 -2 -17 13 -17 13 0 -7 19 -23 23 -69 5 -80 -6 -4 -8 -3 -4 4 3 6 2 14
-4 17 -8 5 -7 11 1 21 9 11 9 13 -2 9 -8 -3 -19 6 -26 22 -11 22 -10 31 3 51
10 15 21 21 31 18 13 -5 14 -4 3 9 -7 8 -11 15 -9 16 37 6 59 6 59 -2 0 -6 5
-7 10 -4 6 4 8 11 5 16 -3 5 1 6 9 3 13 -5 13 -8 1 -20z m95 -129 c0 -14 -6
-25 -12 -25 -9 0 -8 -4 2 -10 12 -8 13 -12 2 -19 -8 -4 -14 -12 -14 -17 0 -5
-4 -8 -10 -6 -5 1 -7 -2 -4 -7 4 -5 -2 -15 -11 -21 -14 -9 -15 -10 -2 -7 13 4
16 -1 15 -23 -1 -16 -5 -32 -9 -36 -4 -4 -2 -13 4 -21 9 -10 7 -13 -7 -13 -16
0 -17 -2 -4 -10 13 -8 13 -10 -2 -10 -11 0 -15 -5 -12 -15 4 -8 15 -15 26 -15
23 0 70 34 61 44 -3 3 -1 6 6 6 8 0 11 6 7 16 -4 11 0 14 16 12 12 -2 23 3 25
12 4 13 3 13 -6 0 -6 -8 -11 -10 -11 -4 0 17 49 66 60 59 6 -3 7 1 4 10 -5 13
-9 13 -22 3 -12 -10 -11 -7 2 14 18 28 40 30 30 4 -3 -8 0 -17 5 -21 6 -3 9
-11 6 -16 -3 -5 2 -6 11 -2 12 5 15 3 9 -6 -4 -8 -2 -17 6 -22 11 -7 10 -9 -4
-9 -13 0 -16 -6 -13 -25 3 -14 1 -25 -3 -25 -3 0 -7 -10 -8 -22 -1 -11 -7 -24
-13 -28 -7 -4 -11 -11 -10 -16 3 -18 -23 -94 -32 -94 -5 0 -7 -3 -4 -8 2 -4
-3 -23 -11 -42 -9 -19 -15 -38 -15 -42 1 -5 -3 -8 -9 -8 -5 0 -7 -4 -4 -10 3
-5 1 -10 -5 -10 -6 0 -8 -4 -5 -10 3 -5 1 -18 -5 -27 -11 -17 -11 -17 -6 0 4
11 2 16 -5 11 -6 -3 -9 -15 -6 -25 3 -11 1 -19 -4 -19 -8 0 -13 22 -10 43 0 4
-3 7 -9 7 -5 0 -7 6 -4 14 3 8 0 17 -5 21 -6 3 -9 11 -6 16 4 5 1 9 -6 9 -8 0
-8 4 1 15 7 8 8 15 3 15 -13 0 -43 88 -36 107 4 11 3 14 -5 9 -8 -5 -12 0 -12
14 0 14 4 19 13 15 6 -4 4 0 -7 9 -10 8 -15 20 -10 27 4 7 3 10 -3 6 -5 -3
-17 15 -26 40 -14 38 -15 43 -2 33 22 -18 19 -4 -4 17 -10 10 -22 28 -26 41
-5 19 -2 25 14 29 11 3 18 9 15 14 -3 5 6 13 20 19 14 5 26 12 26 15 0 4 -4 3
-10 0 -5 -3 -10 -2 -10 4 0 31 31 16 36 -17 2 -8 5 -17 9 -20 8 -8 -1 44 -10
58 -3 5 -2 10 3 10 6 0 12 -7 16 -15 3 -8 11 -15 18 -15 10 0 10 2 -1 9 -7 5
-10 14 -7 20 12 19 26 12 26 -14z m-27 -911 c-6 -16 -16 -11 -19 11 -1 8 4 11
11 8 8 -2 11 -11 8 -19z m0 -36 c-10 -3 -12 -7 -5 -7 6 -1 12 -11 12 -23 0
-21 0 -21 -16 -2 -8 10 -13 14 -10 8 4 -8 -5 -11 -23 -10 l-29 1 19 26 c10 14
16 29 12 32 -3 4 9 1 26 -6 26 -10 28 -13 14 -19z"/>
<path d="M590 1859 c0 -5 5 -7 10 -4 6 3 10 8 10 11 0 2 -4 4 -10 4 -5 0 -10
-5 -10 -11z"/>
<path d="M1115 1711 c-3 -5 0 -13 6 -17 7 -4 9 -3 5 4 -3 5 0 13 6 15 9 4 10
6 1 6 -6 1 -14 -3 -18 -8z"/>
<path d="M1136 1667 c3 -10 9 -15 12 -12 3 3 0 11 -7 18 -10 9 -11 8 -5 -6z"/>
<path d="M1270 1279 c0 -5 5 -7 10 -4 6 3 10 8 10 11 0 2 -4 4 -10 4 -5 0 -10
-5 -10 -11z"/>
<path d="M1515 1209 c-4 -6 -5 -12 -2 -15 2 -3 7 2 10 11 7 17 1 20 -8 4z"/>
<path d="M972 1544 c10 -10 20 -15 24 -12 3 4 -5 12 -18 18 -22 12 -22 12 -6
-6z"/>
<path d="M638 1533 c7 -3 16 -2 19 1 4 3 -2 6 -13 5 -11 0 -14 -3 -6 -6z"/>
<path d="M990 1492 c-21 -17 -21 -18 -1 -18 11 0 18 2 16 5 -3 2 0 10 6 18 16
19 5 16 -21 -5z"/>
<path d="M1695 1240 c-3 -5 -1 -10 4 -10 6 0 11 5 11 10 0 6 -2 10 -4 10 -3 0
-8 -4 -11 -10z"/>
<path d="M1693 1175 c0 -8 4 -12 9 -9 5 3 6 10 3 15 -9 13 -12 11 -12 -6z"/>
<path d="M1490 739 c0 -5 5 -7 10 -4 6 3 10 8 10 11 0 2 -4 4 -10 4 -5 0 -10
-5 -10 -11z"/>
<path d="M1490 706 c0 -2 7 -7 16 -10 8 -3 12 -2 9 4 -6 10 -25 14 -25 6z"/>
<path d="M1075 261 c-3 -5 -2 -12 3 -15 5 -3 9 1 9 9 0 17 -3 19 -12 6z"/>
<path d="M1359 268 c-5 -18 -6 -38 -1 -34 7 8 12 36 6 36 -2 0 -4 -1 -5 -2z"/>
</g>
</svg>
