<?xml version="1.0" standalone="no"?>
<!DOCTYPE svg PUBLIC "-//W3C//DTD SVG 20010904//EN"
 "http://www.w3.org/TR/2001/REC-SVG-20010904/DTD/svg10.dtd">
<svg version="1.0" xmlns="http://www.w3.org/2000/svg"
 width="16.000000pt" height="16.000000pt" viewBox="0 0 16.000000 16.000000"
 preserveAspectRatio="xMidYMid meet">
<metadata>
Created by potrace 1.11, written by Peter Selinger 2001-2013
</metadata>
<g transform="translate(0.000000,16.000000) scale(0.005970,-0.005970)"
fill="#000000" stroke="none">
<path d="M2314 2624 c-82 -53 -119 -143 -110 -271 l6 -81 -37 -22 c-25 -14
-45 -20 -62 -16 -14 4 -42 9 -61 12 -19 3 -36 7 -38 9 -2 2 -4 62 -5 134 -2
108 -5 133 -19 147 -14 15 -19 15 -33 4 -49 -41 -75 -161 -50 -232 7 -21 12
-38 11 -39 -3 -2 -44 -8 -86 -14 -25 -3 -70 -16 -101 -29 -33 -13 -65 -20 -80
-16 -13 3 -30 5 -36 4 -7 -1 -17 -2 -23 -3 -18 -2 -32 -41 -20 -56 9 -11 5
-21 -22 -48 -18 -18 -40 -32 -49 -30 -15 4 -39 -33 -39 -59 0 -6 -20 -53 -45
-105 -25 -51 -45 -98 -45 -105 0 -21 -17 5 -30 46 -42 132 -172 269 -322 338
-161 76 -309 89 -441 39 l-25 -10 3 64 c2 43 -2 70 -12 84 -32 46 -51 9 -55
-106 l-2 -78 -46 -36 c-25 -20 -54 -46 -64 -58 -11 -11 -29 -21 -40 -22 -18 0
-18 -1 -4 -7 16 -6 15 -10 -9 -40 -14 -19 -49 -44 -77 -57 -28 -13 -60 -33
-70 -44 -18 -20 -18 -21 5 -30 13 -5 34 -7 47 -4 19 3 22 0 18 -15 -51 -161
-38 -309 42 -467 84 -168 235 -334 580 -639 67 -60 122 -113 122 -120 0 -30
-93 -373 -125 -461 -57 -157 -64 -179 -61 -182 8 -8 95 238 127 357 30 110 40
152 45 180 3 14 9 42 15 63 11 43 22 41 77 -16 27 -28 32 -39 24 -53 -25 -48
-162 -492 -162 -523 1 -9 16 37 35 102 57 193 136 427 144 427 5 0 53 -47 106
-104 87 -93 154 -146 182 -146 6 0 28 28 51 62 50 79 147 193 273 323 53 55
109 114 124 130 15 17 64 71 109 120 44 50 133 144 197 210 169 174 206 221
263 329 61 119 79 252 51 390 -9 45 -45 127 -72 163 -30 42 -29 50 8 47 20 -1
38 5 51 18 19 19 19 21 3 38 -20 22 -95 45 -175 54 -54 6 -130 34 -130 48 0 4
42 28 93 53 106 52 195 74 231 57 40 -18 66 27 27 47 -14 8 -23 6 -36 -9 -10
-11 -27 -20 -37 -20 -24 0 -168 -49 -186 -63 -23 -18 -23 -1 1 34 13 19 43 70
68 114 105 187 106 256 3 189z"/>
<path d="M176 2104 c-19 -18 -19 -20 -6 -45 13 -23 43 -25 61 -3 9 11 23 14
46 11 18 -3 33 -3 33 1 0 4 -12 9 -26 10 -14 1 -37 11 -51 22 -31 24 -37 25
-57 4z"/>
</g>
</svg>
